<svg width="1280" height="640" viewBox="0 0 1280 640" fill="none" xmlns="http://www.w3.org/2000/svg" font-family="'Segoe UI', system-ui, -apple-system, Roboto, Helvetica, Arial, sans-serif">
  <defs>
    <radialGradient id="glowV" cx="18%" cy="12%" r="60%">
      <stop offset="0%" stop-color="#7c3aed" stop-opacity="0.42"/>
      <stop offset="100%" stop-color="#7c3aed" stop-opacity="0"/>
    </radialGradient>
    <radialGradient id="glowI" cx="88%" cy="92%" r="60%">
      <stop offset="0%" stop-color="#4f46e5" stop-opacity="0.38"/>
      <stop offset="100%" stop-color="#4f46e5" stop-opacity="0"/>
    </radialGradient>
    <linearGradient id="primary" x1="0" y1="0" x2="1" y2="1">
      <stop offset="0%" stop-color="#a78bfa"/>
      <stop offset="100%" stop-color="#6366f1"/>
    </linearGradient>
    <linearGradient id="title" x1="0" y1="0" x2="1" y2="0">
      <stop offset="0%" stop-color="#f8fafc"/>
      <stop offset="60%" stop-color="#e9e5ff"/>
      <stop offset="100%" stop-color="#c4b5fd"/>
    </linearGradient>
    <linearGradient id="bar" x1="0" y1="0" x2="1" y2="0">
      <stop offset="0%" stop-color="#8b5cf6"/>
      <stop offset="100%" stop-color="#6366f1"/>
    </linearGradient>
  </defs>

  <!-- backdrop -->
  <rect width="1280" height="640" fill="#05070f"/>
  <rect width="1280" height="640" fill="url(#glowV)"/>
  <rect width="1280" height="640" fill="url(#glowI)"/>

  <!-- ===== Left column: identity ===== -->
  <g transform="translate(80, 132)">
    <!-- logo mark -->
    <rect x="0" y="0" width="64" height="64" rx="16" fill="url(#primary)"/>
    <path d="M20 20 h24 a4 4 0 0 1 4 4 v4 h-32 v-4 a4 4 0 0 1 4 -4 z M12 32 h40 l-4 26 a6 6 0 0 1 -6 5 h-14 a6 6 0 0 1 -6 -5 z" fill="#0b0f1e" opacity="0.85"/>

    <text x="84" y="30" font-size="26" font-weight="700" fill="#c4b5fd" letter-spacing="0.5">FoodTracker</text>
    <text x="84" y="54" font-size="14" font-weight="600" fill="#8b93a7" letter-spacing="3">PRICE · CALORIE · MEAL INTELLIGENCE</text>

    <text x="0" y="150" font-size="76" font-weight="800" fill="url(#title)" letter-spacing="-1">Know what</text>
    <text x="0" y="228" font-size="76" font-weight="800" fill="url(#title)" letter-spacing="-1">groceries</text>
    <text x="0" y="306" font-size="76" font-weight="800" fill="url(#title)" letter-spacing="-1">really cost.</text>

    <text x="2" y="360" font-size="21" font-weight="500" fill="#a9b1c6">Turns receipts &amp; shelf tags into structured price data,</text>
    <text x="2" y="390" font-size="21" font-weight="500" fill="#a9b1c6">tracks it across stores, and doubles as a nutrition diary.</text>

    <!-- tech pills -->
    <g transform="translate(0, 424)" font-size="14" font-weight="600">
      <g fill="#c7cede">
        <rect x="0"   y="0" width="92"  height="34" rx="17" fill="#0b1120" stroke="#ffffff" stroke-opacity="0.08"/><text x="46"  y="22" text-anchor="middle">Next.js 14</text>
        <rect x="104" y="0" width="82"  height="34" rx="17" fill="#0b1120" stroke="#ffffff" stroke-opacity="0.08"/><text x="145" y="22" text-anchor="middle">Express</text>
        <rect x="198" y="0" width="90"  height="34" rx="17" fill="#0b1120" stroke="#ffffff" stroke-opacity="0.08"/><text x="243" y="22" text-anchor="middle">FastAPI</text>
        <rect x="300" y="0" width="98"  height="34" rx="17" fill="#0b1120" stroke="#ffffff" stroke-opacity="0.08"/><text x="349" y="22" text-anchor="middle">Postgres</text>
        <rect x="410" y="0" width="86"  height="34" rx="17" fill="#0b1120" stroke="#ffffff" stroke-opacity="0.08"/><text x="453" y="22" text-anchor="middle">BullMQ</text>
      </g>
    </g>
  </g>

  <!-- ===== Right column: mock dashboard panel ===== -->
  <g transform="translate(742, 96)">
    <rect x="0" y="0" width="458" height="448" rx="24" fill="#080c1c" fill-opacity="0.72" stroke="#ffffff" stroke-opacity="0.07"/>

    <!-- stat cards -->
    <g transform="translate(28, 30)">
      <rect x="0"   y="0" width="126" height="86" rx="14" fill="#0c1226" stroke="#ffffff" stroke-opacity="0.06"/>
      <rect x="138" y="0" width="126" height="86" rx="14" fill="#0c1226" stroke="#ffffff" stroke-opacity="0.06"/>
      <rect x="276" y="0" width="126" height="86" rx="14" fill="#0c1226" stroke="#ffffff" stroke-opacity="0.06"/>

      <text x="16"  y="30" font-size="12" font-weight="600" fill="#8b93a7">Tracked Foods</text>
      <text x="16"  y="66" font-size="30" font-weight="800" fill="#f1f5f9">358</text>
      <text x="154" y="30" font-size="12" font-weight="600" fill="#8b93a7">Stores</text>
      <text x="154" y="66" font-size="30" font-weight="800" fill="#f1f5f9">9</text>
      <text x="292" y="30" font-size="12" font-weight="600" fill="#8b93a7">Avg Spread</text>
      <text x="292" y="66" font-size="30" font-weight="800" fill="#a78bfa">46.7%</text>
    </g>

    <!-- table header -->
    <g transform="translate(28, 148)">
      <text x="0"   y="0" font-size="12" font-weight="700" fill="#6b7386" letter-spacing="1">FOOD</text>
      <text x="402" y="0" font-size="12" font-weight="700" fill="#6b7386" letter-spacing="1" text-anchor="end">BEST PRICE</text>
      <line x1="0" y1="14" x2="402" y2="14" stroke="#ffffff" stroke-opacity="0.06"/>
    </g>

    <!-- rows -->
    <g transform="translate(28, 170)" font-family="'Segoe UI', system-ui, sans-serif">
      <!-- row template: icon, name, per-kg price -->
      <g>
        <rect x="0" y="0" width="28" height="28" rx="7" fill="url(#primary)" opacity="0.85"/>
        <text x="40" y="14" font-size="14" font-weight="600" fill="#e2e8f0">Chicken breast</text>
        <text x="40" y="30" font-size="11" fill="#7c8497">Save-On-Foods · mass</text>
        <text x="402" y="14" font-size="15" font-weight="700" fill="#34d399" text-anchor="end">$8.80/kg</text>
        <text x="402" y="30" font-size="10" fill="#7c8497" text-anchor="end">($3.99/lb)</text>
      </g>
      <g transform="translate(0, 52)">
        <rect x="0" y="0" width="28" height="28" rx="7" fill="url(#primary)" opacity="0.7"/>
        <text x="40" y="14" font-size="14" font-weight="600" fill="#e2e8f0">Olive oil</text>
        <text x="40" y="30" font-size="11" fill="#7c8497">Costco · volume · ρ 0.92</text>
        <text x="402" y="14" font-size="15" font-weight="700" fill="#34d399" text-anchor="end">$12.83/kg</text>
        <text x="402" y="30" font-size="10" fill="#7c8497" text-anchor="end">($11.80/L)</text>
      </g>
      <g transform="translate(0, 104)">
        <rect x="0" y="0" width="28" height="28" rx="7" fill="url(#primary)" opacity="0.55"/>
        <text x="40" y="14" font-size="14" font-weight="600" fill="#e2e8f0">Greek yogurt</text>
        <rect x="40" y="20" width="38" height="14" rx="7" fill="#f59e0b" opacity="0.16"/>
        <text x="59" y="30" font-size="9" font-weight="700" fill="#fbbf24" text-anchor="middle">SALE</text>
        <text x="84" y="30" font-size="11" fill="#7c8497">ends in 3d</text>
        <text x="402" y="14" font-size="15" font-weight="700" fill="#34d399" text-anchor="end">$5.98/kg</text>
      </g>
      <g transform="translate(0, 156)">
        <rect x="0" y="0" width="28" height="28" rx="7" fill="url(#primary)" opacity="0.4"/>
        <text x="40" y="14" font-size="14" font-weight="600" fill="#e2e8f0">Bananas</text>
        <text x="40" y="30" font-size="11" fill="#7c8497">Walmart · count</text>
        <text x="402" y="14" font-size="15" font-weight="700" fill="#34d399" text-anchor="end">$0.20/each</text>
      </g>
    </g>

    <!-- footer chip -->
    <g transform="translate(28, 398)">
      <rect x="0" y="0" width="402" height="26" rx="13" fill="#0c1226" stroke="#ffffff" stroke-opacity="0.06"/>
      <circle cx="18" cy="13" r="4" fill="#34d399"/>
      <text x="32" y="17" font-size="11" font-weight="600" fill="#9aa3b6">smoke suite green · 51 assertions · verified every turn</text>
    </g>
  </g>
</svg>
